PathFileType	4	(X/Y/Z)	./resultDataOpenSim/trcMotMarkerGrf/sub10/qtm-15-01.trc
DataRate	CameraRate	NumFrames	NumMarkers	Units	OrigDataRate	OrigDataStartFrame	OrigNumFrames
250.000000	250.000000	8	24	m	250.000000	1	452
Frame#	Time	L.Toe.Tip			R.Toe.Tip			L.Ankle.Lat			R.Ankle.Lat			L.Ankle.Med			R.Ankle.Med			L.Heel			R.Heel			L.Knee.Lat			R.Knee.Lat			L.Knee.Med			R.Knee.Med			L.Thigh.Upper			R.Thigh.Upper			L.ASIS			R.ASIS			V.Sacral			L.Acromium			R.Acromium			C7			L.Elbow			R.Elbow			L.Wrist.Lat			R.Wrist.Lat
		X1	Y1	Z1	X2	Y2	Z2	X3	Y3	Z3	X4	Y4	Z4	X5	Y5	Z5	X6	Y6	Z6	X7	Y7	Z7	X8	Y8	Z8	X9	Y9	Z9	X10	Y10	Z10	X11	Y11	Z11	X12	Y12	Z12	X13	Y13	Z13	X14	Y14	Z14	X15	Y15	Z15	X16	Y16	Z16	X17	Y17	Z17	X18	Y18	Z18	X19	Y19	Z19	X20	Y20	Z20	X21	Y21	Z21	X22	Y22	Z22	X23	Y23	Z23	X24	Y24	Z24

1	0	-1.5845408	0.03759219	-0.1799436	-0.98932081	0.10842455	0.029777507	-1.7142504	0.072061443	-0.18694857	-1.124079	0.074578434	0.074213666	-1.6982061	0.088148219	-0.10423396	-1.1165323	0.10783143	-0.0082173287	NaN	NaN	NaN	-1.1590605	0.033087736	0.028581686	-1.5785464	0.43500945	-0.20856747	-1.238073	0.46125162	0.092596681	-1.5742191	0.40801401	-0.090211916	-1.2308738	0.46329447	-0.036336881	-1.4621896	0.80970383	-0.26022967	-1.4103808	0.84255069	0.12549491	-1.3781849	0.90899609	-0.20332969	-1.3466846	0.93152686	0.043206679	-1.5590479	0.93956009	-0.054210466	-1.3345019	1.3727793	-0.2369324	-1.3816136	1.3895361	0.080347352	-1.4399549	1.4258516	-0.089840073	-1.3851756	1.0260438	-0.28772946	-1.5522685	1.0914712	0.14906005	-1.179698	0.88489592	-0.27876728	-1.4774173	0.87345654	0.23542262
2	0.004	-1.5844775	0.037555762	-0.17994641	-0.97751317	0.11090822	0.030239599	-1.7140612	0.073006726	-0.18634408	-1.1114178	0.075290467	0.075486497	-1.696697	0.088874478	-0.10382717	-1.1048426	0.10868906	-0.0072527568	NaN	NaN	NaN	-1.1462378	0.033265298	0.02980862	-1.5749124	0.43472268	-0.20858734	-1.2320427	0.46016949	0.09384958	-1.5708631	0.40779191	-0.089976115	-1.2257298	0.46147467	-0.035265321	-1.4569514	0.80875214	-0.26020232	-1.4044616	0.84122559	0.12543341	-1.3729748	0.90801892	-0.20334001	-1.3407529	0.93057557	0.043166984	-1.5528712	0.93768553	-0.054518767	-1.3292953	1.3717276	-0.23642306	-1.3761717	1.3883235	0.080608067	-1.4349565	1.4246411	-0.089301979	-1.3786838	1.0248558	-0.28732288	-1.548045	1.0906111	0.14952173	-1.1717397	0.88566918	-0.2774281	-1.4748114	0.87247326	0.23600741
3	0.008	-1.5844075	0.037524075	-0.17995291	-0.96597671	0.11326233	0.030748763	-1.7137538	0.07393566	-0.18576018	-1.099116	0.075972527	0.07672579	-1.6954449	0.08958898	-0.1034357	-1.0934275	0.10949878	-0.0062512859	NaN	NaN	NaN	-1.1337165	0.033463724	0.031094342	-1.5713471	0.43442998	-0.20860418	-1.2259437	0.45912214	0.095047986	-1.5675288	0.40750437	-0.08972927	-1.2206191	0.45969698	-0.034224573	-1.4517111	0.80784538	-0.26018256	-1.3984737	0.83989596	0.12536852	-1.3677456	0.90704779	-0.20337157	-1.3348235	0.92962694	0.043089635	-1.546948	0.93595106	-0.054663574	-1.3240882	1.3707102	-0.23590799	-1.3708667	1.3871354	0.080941561	-1.4300119	1.4234351	-0.08894439	-1.3723017	1.0237054	-0.28726622	-1.5438872	1.0897252	0.15003307	-1.1638352	0.88644756	-0.27611004	-1.4721369	0.87149531	0.23660014
4	0.012	-1.5843301	0.037499562	-0.179964	-0.95487765	0.11539891	0.031345243	-1.7132929	0.074890525	-0.18521611	-1.0873817	0.076608999	0.077930051	-1.694348	0.090325219	-0.10304471	-1.0824924	0.11020745	-0.0051979603	NaN	NaN	NaN	-1.1216991	0.033673191	0.032522562	-1.5678325	0.43413294	-0.20861804	-1.2197436	0.45814562	0.096187368	-1.5641995	0.40711523	-0.089446274	-1.2155077	0.45797262	-0.03320582	-1.4464645	0.80701754	-0.2601712	-1.3923086	0.83856373	0.12530164	-1.3624787	0.9060824	-0.20343372	-1.3288906	0.92867432	0.042962751	-1.5412752	0.93439459	-0.054605191	-1.3188635	1.3697397	-0.23537727	-1.3657054	1.3859859	0.081366722	-1.4250996	1.4222474	-0.088744799	-1.3660306	1.0226152	-0.2875237	-1.539759	1.0888722	0.15055562	-1.1560027	0.88724488	-0.27481256	-1.4694419	0.87052297	0.23719588
5	0.016	-1.5842475	0.037481065	-0.17997884	-0.94430136	0.11726905	0.032056112	-1.7127548	0.075915536	-0.18471146	-1.0762856	0.077186587	0.079122045	-1.6931799	0.091126526	-0.10263132	-1.0721562	0.11077493	-0.0040959953	NaN	NaN	NaN	-1.1103002	0.033869439	0.034106146	-1.5642925	0.43383988	-0.20863434	-1.2134839	0.45725707	0.097286495	-1.5607815	0.40663999	-0.089127798	-1.2103361	0.45631053	-0.032193259	-1.4412359	0.80628697	-0.26017351	-1.3859386	0.83723235	0.12524598	-1.3571768	0.90512375	-0.20352544	-1.3229633	0.92770601	0.042799479	-1.535676	0.93297315	-0.054385228	-1.3136083	1.3688118	-0.23482141	-1.3606053	1.3848849	0.081865426	-1.4201659	1.421092	-0.08856329	-1.3597944	1.0215988	-0.28772837	-1.5355562	1.0881352	0.15101383	-1.148254	0.88807226	-0.27352898	-1.4668095	0.86955977	0.23778264
6	0.02	-1.5841584	0.037465858	-0.17999667	-0.93428782	0.11884778	0.032896437	-1.7122168	0.077012324	-0.18422097	-1.0658238	0.077686076	0.080331893	-1.6920384	0.091980868	-0.10220447	-1.0624102	0.11120452	-0.002942269	NaN	NaN	NaN	-1.0995611	0.034042923	0.035709175	-1.5606493	0.43355778	-0.20865764	-1.2072101	0.45645957	0.098346878	-1.5570985	0.40613221	-0.088827906	-1.20505	0.45473719	-0.031192212	-1.4360677	0.80565582	-0.26021708	-1.379452	0.83590009	0.12522358	-1.3518509	0.90417866	-0.20364293	-1.3170383	0.92671718	0.042620031	-1.5299675	0.93163312	-0.054011252	-1.3083233	1.3679296	-0.23423364	-1.3554893	1.383841	0.082419933	-1.4151871	1.4199727	-0.088356234	-1.3535321	1.0206634	-0.2875967	-1.5312171	1.0875311	0.15138938	-1.1406044	0.88893264	-0.27225453	-1.4641994	0.86862556	0.23835342
7	0.024	-1.584058	0.037453493	-0.18001771	-0.92485373	0.12013035	0.033874333	-1.7116789	0.078161568	-0.18371643	-1.0559801	0.078090593	0.081587292	-1.6912852	0.09283336	-0.10179381	-1.0531658	0.11153309	-0.0017258023	NaN	NaN	NaN	-1.0894851	0.03419301	0.037152244	-1.5568594	0.43328433	-0.20868455	-1.2009064	0.45576589	0.099356464	-1.5529654	0.40563954	-0.088631315	-1.1996202	0.45328053	-0.030216898	-1.4310037	0.80510598	-0.26034633	-1.3729443	0.8345704	0.12524757	-1.3465127	0.90325407	-0.20378545	-1.3110889	0.92571589	0.042437585	-1.5240707	0.93035435	-0.053475336	-1.3030239	1.3671081	-0.23360898	-1.3503262	1.3828619	0.083024957	-1.4101813	1.4188927	-0.088203653	-1.3472484	1.0198102	-0.28713864	-1.5267644	1.0870152	0.15171559	-1.1330727	0.88982433	-0.27097738	-1.4614517	0.86776294	0.23891215
8	0.028	-1.5839436	0.037447192	-0.18004286	-0.91597017	0.12113734	0.035003702	-1.7111389	0.079349517	-0.18319595	-1.0467421	0.078389116	0.082903747	-1.6910736	0.093665198	-0.10140634	-1.0443582	0.11177751	-0.00044686339	NaN	NaN	NaN	-1.0800683	0.034305075	0.038367749	-1.5529042	0.43301759	-0.20871175	-1.1945375	0.45518823	0.10030872	-1.5482591	0.40517735	-0.088617485	-1.1940587	0.45195776	-0.029280972	-1.4260699	0.80460374	-0.26057649	-1.3664086	0.83326646	0.12531666	-1.3411704	0.90235088	-0.20395111	-1.3050928	0.92471426	0.042254244	-1.5180437	0.92915306	-0.052839346	-1.297721	1.366356	-0.23294727	-1.3450858	1.3819526	0.08367903	-1.405165	1.4178592	-0.088144962	-1.3409811	1.0190323	-0.28652656	-1.5222467	1.0865335	0.15202183	-1.125667	0.89074933	-0.26968536	-1.4584208	0.86701785	0.23947538
